<svg width="12" height="7" viewBox="0 0 12 7" fill="none" xmlns="http://www.w3.org/2000/svg">
<path d="M11.8333 5.66666C11.8337 5.86137 11.7659 6.05007 11.6416 6.2C11.5717 6.28438 11.4858 6.35413 11.3888 6.40526C11.2919 6.45638 11.1858 6.48788 11.0766 6.49794C10.9675 6.50801 10.8574 6.49644 10.7527 6.4639C10.6481 6.43137 10.5508 6.3785 10.4666 6.30833L5.99997 2.575L1.52497 6.175C1.43973 6.24422 1.34165 6.29591 1.23637 6.32711C1.13109 6.3583 1.02068 6.36838 0.911485 6.35676C0.802295 6.34514 0.696477 6.31206 0.600113 6.25942C0.503749 6.20677 0.41874 6.1356 0.349971 6.05C0.274107 5.96378 0.216884 5.86281 0.181893 5.75342C0.146902 5.64403 0.134899 5.5286 0.146637 5.41435C0.158374 5.30011 0.193599 5.18952 0.2501 5.08954C0.306602 4.98955 0.38316 4.90233 0.474971 4.83333L5.47497 0.808332C5.62408 0.685764 5.81112 0.618759 6.00414 0.618759C6.19716 0.618759 6.38419 0.685764 6.5333 0.808332L11.5333 4.975C11.6342 5.0586 11.7139 5.16479 11.766 5.28496C11.8181 5.40514 11.8412 5.53591 11.8333 5.66666Z" fill="#000000"/>
</svg>
