<svg width="18" height="12" viewBox="0 0 18 12" fill="none" xmlns="http://www.w3.org/2000/svg">
<path fill-rule="evenodd" clip-rule="evenodd" d="M17.7499 5.99981C17.7499 5.83405 17.684 5.67508 17.5668 5.55787C17.4496 5.44066 17.2907 5.37481 17.1249 5.37481H2.38365L6.3174 1.44231C6.37551 1.3842 6.4216 1.31522 6.45305 1.23929C6.4845 1.16337 6.50069 1.08199 6.50069 0.999813C6.50069 0.917633 6.4845 0.836258 6.45305 0.760334C6.4216 0.684409 6.37551 0.615423 6.3174 0.557313C6.25929 0.499203 6.1903 0.453108 6.11438 0.421659C6.03845 0.39021 5.95708 0.374023 5.8749 0.374023C5.79272 0.374023 5.71134 0.39021 5.63542 0.421659C5.55949 0.453108 5.49051 0.499203 5.4324 0.557313L0.432397 5.55731C0.374192 5.61537 0.328014 5.68434 0.296506 5.76027C0.264998 5.8362 0.248779 5.9176 0.248779 5.99981C0.248779 6.08202 0.264998 6.16342 0.296506 6.23935C0.328014 6.31529 0.374192 6.38426 0.432397 6.44231L5.4324 11.4423C5.49051 11.5004 5.55949 11.5465 5.63542 11.578C5.71134 11.6094 5.79272 11.6256 5.8749 11.6256C5.95708 11.6256 6.03845 11.6094 6.11438 11.578C6.1903 11.5465 6.25929 11.5004 6.3174 11.4423C6.37551 11.3842 6.4216 11.3152 6.45305 11.2393C6.4845 11.1634 6.50069 11.082 6.50069 10.9998C6.50069 10.9176 6.4845 10.8363 6.45305 10.7603C6.4216 10.6844 6.37551 10.6154 6.3174 10.5573L2.38365 6.62481H17.1249C17.2907 6.62481 17.4496 6.55897 17.5668 6.44176C17.684 6.32455 17.7499 6.16557 17.7499 5.99981Z" fill="#F8F8F8"/>
</svg>
