<svg width="1133" height="269" viewBox="0 0 1133 269" fill="none" xmlns="http://www.w3.org/2000/svg">
<path d="M1122.86 51.78H1113.88L1112.77 87.94L1099.32 93.33V118.44H1078.02V178.16H1067.65L1063.85 50.79H1058.48V41.1H1064.54V37.63H1060.19C1057.52 29.18 1049.58 23.04 1040.18 23.04C1030.78 23.04 1022.84 29.18 1020.17 37.63H1015.82V41.1H1021.87V50.79H1016.5L1012.7 178.13H1000.31C1000.33 178.34 1000.34 178.56 1000.34 178.77C1000.34 182.46 997.35 185.44 993.67 185.44C989.98 185.44 987 182.45 987 178.77C987 182.46 984.01 185.44 980.33 185.44C976.64 185.44 973.66 182.45 973.66 178.77C973.66 182.46 970.67 185.44 966.99 185.44C963.31 185.44 960.32 182.45 960.32 178.77C960.32 182.46 957.33 185.44 953.65 185.44C949.97 185.44 946.98 182.45 946.98 178.77C946.98 182.46 943.99 185.44 940.31 185.44C936.63 185.44 933.64 182.45 933.64 178.77C933.64 178.55 933.65 178.34 933.67 178.13H907.05V139.44H912.55L899.67 122.43H870.41V102.82H861.13L832.73 79.67L805.32 102.02V49.95H786.72V30.63H784.76V49.95H780.44V20.63H778.48V49.95H725.51V78.77L707.64 70.88L673.45 85.98H673.43V134.04L648.28 151.11L673.43 148.21V178.18H659.6V166.04H666.71V163.23H650.55V166.04H657.66V178.18H614.57V74.95H607.48V32.69L552.87 58.8L552.43 40.54H546.06L545.53 62.3L541.44 64.26L540.87 40.54H534.5L533.84 67.89L523.81 72.68V178.14H498.71C499.78 177.31 500.49 176.03 500.49 174.57V172.21H483.86V168.66H486.52C489.02 168.66 491.05 166.63 491.05 164.13V161.77H479.91V157.48C479.91 153.17 483.42 149.66 487.73 149.66C492.04 149.66 495.55 153.17 495.55 157.48C495.55 157.91 495.89 158.25 496.32 158.25C496.75 158.25 497.09 157.91 497.09 157.48C497.09 152.32 492.89 148.12 487.73 148.12C484.46 148.12 481.58 149.81 479.91 152.35V140.62C479.91 138.65 481.51 137.04 483.49 137.04C485.46 137.04 487.07 138.64 487.07 140.62C487.07 141.05 487.41 141.39 487.84 141.39C488.27 141.39 488.61 141.05 488.61 140.62C488.61 137.8 486.31 135.5 483.49 135.5C481.65 135.5 480.04 136.49 479.14 137.95C478.24 136.49 476.63 135.5 474.79 135.5C471.97 135.5 469.67 137.79 469.67 140.62C469.67 141.05 470.01 141.39 470.44 141.39C470.87 141.39 471.21 141.05 471.21 140.62C471.21 138.65 472.81 137.04 474.79 137.04C476.76 137.04 478.37 138.64 478.37 140.62V152.35C476.69 149.81 473.82 148.12 470.55 148.12C465.39 148.12 461.19 152.32 461.19 157.48C461.19 157.91 461.53 158.25 461.96 158.25C462.39 158.25 462.73 157.91 462.73 157.48C462.73 153.17 466.24 149.66 470.55 149.66C474.86 149.66 478.37 153.17 478.37 157.48V161.77H467.23V164.13C467.23 166.63 469.26 168.66 471.76 168.66H474.42V172.21H457.79V174.57C457.79 176.03 458.49 177.31 459.57 178.14H446.15V125.2H434.53V60.85H393.46V87.39L379.12 77.44L353.52 95.2401V110.97L340.85 115.88V47.22H345.13L320.36 29.52V5.37C321.41 4.97 322.16 3.97003 322.16 2.78003C322.16 1.25003 320.92 0 319.38 0C317.85 0 316.6 1.24003 316.6 2.78003C316.6 3.97003 317.35 4.97 318.4 5.37V8.14001L305.66 12.1L318.4 16.06V29.52L293.63 47.22H297.91V178.14H279.67V141.11H275.6C272.78 124.09 255.79 111 235.25 111C233.6 111 231.97 111.09 230.37 111.26V99.33H209.92V71.77H193.74V47.38H149.18V71.77H143.38V178.16H110.18V174.68H116.67V172.62H78.83V174.68H85.32V178.16H68.43V146.21C71.53 147.88 75.11 146.93 77.01 144.3C89.89 145.97 96.09 129.52 88.22 121.17C90.37 115.21 83.69 109.96 78.44 113.54C73.67 101.86 57.93 101.86 52.93 113.06C49.59 113.06 46.49 115.44 46.25 118.78C32.9 126.41 41 149.06 57.7 143.58C63.28 151.95 63.03 149.99 62.8 159.28C62.76 160.8 62.72 172.58 62.71 178.14H29.73V76.21L0 34.36V104.45H9.14V117.88H0V132.19H9.14V145.62H0V268.44H1132.51V80.06L1123.83 83.5L1122.86 51.78ZM62.71 146.69L59.59 142.79C60.31 142.55 61.98 141.63 62.71 140.96V146.69ZM20.37 145.63H13.08V132.2H20.37V145.63ZM20.37 117.88H13.08V104.45H20.37V117.88ZM108.05 178.15H87.39V174.67H108.04V178.15H108.05ZM160.3 69.32H153.94V62.6H160.3V69.32ZM160.3 58.76H153.94V52.04H160.3V58.76ZM171.17 69.32H164.81V62.6H171.17V69.32ZM171.17 58.76H164.81V52.04H171.17V58.76ZM183.72 94.69H177.36V87.97H183.72V94.69ZM183.72 84.13H177.36V77.41H183.72V84.13ZM194.59 115.81H188.23V109.09H194.59V115.81ZM194.59 105.25H188.23V98.53H194.59V105.25ZM205.46 115.81H199.1V109.09H205.46V115.81ZM205.46 105.25H199.1V98.53H205.46V105.25ZM205.46 94.69H199.1V87.97H205.46V94.69ZM205.46 84.13H199.1V77.41H205.46V84.13ZM234.98 171.27H228.09V160.13H234.98V171.27ZM234.98 156.07H228.09V144.93H234.98V156.07ZM246.11 171.27H239.22V160.13H246.11V171.27ZM246.11 156.07H239.22V144.93H246.11V156.07ZM257.24 171.27H250.35V160.13H257.24V171.27ZM257.24 156.07H250.35V144.93H257.24V156.07ZM311.86 64.89V73.67V80H306.63V73.67V64.89V62.94C306.63 61.5 307.8 60.33 309.24 60.33C310.68 60.33 311.85 61.5 311.85 62.94V64.89H311.86ZM321.96 97.84V106.62V112.95H316.73V106.62V97.84V95.89C316.73 94.45 317.9 93.28 319.34 93.28C320.78 93.28 321.95 94.45 321.95 95.89V97.84H321.96ZM332.06 132.73V141.51V147.84H326.83V141.51V132.73V130.78C326.83 129.34 328 128.17 329.44 128.17C330.88 128.17 332.05 129.34 332.05 130.78V132.73H332.06ZM349.31 154.42H341.91V148.04H349.31V154.42ZM368.6 94.23H374.23V99.86H368.6V94.23ZM368.6 104.17H374.23V109.8H368.6V104.17ZM362.26 154.42H354.86V148.04H362.26V154.42ZM368.6 114.11H374.23V119.74H368.6V114.11ZM376.1 154.42H368.7V148.04H376.1V154.42ZM383.74 119.73H378.11V114.1H383.74V119.73ZM383.74 109.8H378.11V104.17H383.74V109.8ZM383.74 99.86H378.11V94.23H383.74V99.86ZM407.79 84.16H401.23V77.03H407.79V84.16ZM407.79 73.04H401.23V65.91H407.79V73.04ZM419.18 106.39H412.62V99.26H419.18V106.39ZM419.18 95.27H412.62V88.14H419.18V95.27ZM419.18 73.04H412.62V65.91H419.18V73.04ZM430.67 106.39H424.11V99.26H430.67V106.39ZM430.67 84.16H424.11V77.03H430.67V84.16ZM430.67 73.04H424.11V65.91H430.67V73.04ZM534.95 136.98H528.89V123.55H534.95V136.98ZM534.95 101.97H528.89V88.54H534.95V101.97ZM550.34 136.98H538.23V123.55H550.34V136.98ZM550.34 101.97H538.23V88.54H550.34V101.97ZM559.68 136.98H553.63V123.55H559.68V136.98ZM559.68 101.97H553.63V88.54H559.68V101.97ZM585.38 136.98H579.32V123.55H585.38V136.98ZM585.38 101.97H579.32V88.54H585.38V101.97ZM600.77 136.98H588.66V123.55H600.77V136.98ZM600.77 101.97H588.66V88.54H600.77V101.97ZM610.11 136.98H604.06V123.55H610.11V136.98ZM610.11 101.97H604.06V88.54H610.11V101.97ZM697.61 127.72H691.8V119.29H697.61V127.72ZM697.61 116.47H691.8V108.04H697.61V116.47ZM697.61 105.22H691.8V96.79H697.61V105.22ZM748.26 125.4H740.25V117.14H748.26V125.4ZM748.26 113.89H740.25V105.63H748.26V113.89ZM748.26 102.39H740.25V94.13H748.26V102.39ZM748.26 90.88H740.25V82.62H748.26V90.88ZM760.24 125.4H752.23V117.14H760.24V125.4ZM760.24 113.89H752.23V105.63H760.24V113.89ZM760.24 102.39H752.23V94.13H760.24V102.39ZM760.24 90.88H752.23V82.62H760.24V90.88ZM772.21 125.4H764.2V117.14H772.21V125.4ZM772.21 113.89H764.2V105.63H772.21V113.89ZM772.21 90.88H764.2V82.62H772.21V90.88ZM772.21 79.37H764.2V71.11H772.21V79.37ZM784.19 102.39H776.18V94.13H784.19V102.39ZM784.19 90.88H776.18V82.62H784.19V90.88ZM796.17 102.39H788.16V94.13H796.17V102.39ZM796.17 90.88H788.16V82.62H796.17V90.88ZM796.17 79.37H788.16V71.11H796.17V79.37ZM796.17 67.87H788.16V59.61H796.17V67.87ZM840.36 140.33H832.23V130.45H840.36V140.33ZM840.36 126.02H832.23V116.14H840.36V126.02ZM840.36 111.7H832.23V101.82H840.36V111.7ZM1028.76 50.77H1024.08V41.08H1028.76V50.77ZM1035.64 50.77H1030.96V41.08H1035.64V50.77ZM1042.5 155.48H1037.87V147.33H1042.5V155.48ZM1042.5 136.9H1037.87V128.75H1042.5V136.9ZM1042.5 118.32H1037.87V110.17H1042.5V118.32ZM1042.5 99.7401H1037.87V91.59H1042.5V99.7401ZM1042.5 81.16H1037.87V73.01H1042.5V81.16ZM1042.52 50.77H1037.84V41.08H1042.52V50.77ZM1049.4 50.77H1044.72V41.08H1049.4V50.77ZM1056.28 50.77H1051.6V41.08H1056.28V50.77ZM1094.7 160.91H1088.26V153.81H1094.7V160.91ZM1094.7 148.51H1088.26V141.41H1094.7V148.51ZM1094.7 136.1H1088.26V129H1094.7V136.1Z" fill="#C35895"/>
</svg>
