<svg width="20" height="20" viewBox="0 0 20 20" fill="none" xmlns="http://www.w3.org/2000/svg">
<path d="M3.3707 3.37094C-0.290235 7.03187 -0.290235 12.9681 3.3707 16.6291C7.03164 20.2903 12.9679 20.2903 16.6288 16.6291C20.2904 12.9681 20.2904 7.03187 16.6288 3.37094C12.9679 -0.290312 7.03164 -0.290312 3.3707 3.37094ZM16.8748 8.49344L14.0898 11.0494L14.0898 9.61312L7.15133 9.61312C6.19977 9.61312 5.42602 10.3662 5.42602 11.2922C5.42595 11.5139 5.47068 11.7334 5.55751 11.9375C5.64434 12.1416 5.77149 12.326 5.93133 12.4797L4.30352 14.0625C3.54352 13.3225 3.12508 12.3384 3.12508 11.2922C3.12508 9.13156 4.93102 7.37437 7.15164 7.37437L14.0901 7.37437L14.0901 5.9375L16.8748 8.49344Z" fill="#711A5B"/>
</svg>
