<svg width="18" height="18" viewBox="0 0 18 18" fill="none" xmlns="http://www.w3.org/2000/svg">
<path d="M9 18C11.3869 18 13.6761 17.0518 15.364 15.364C16.1997 14.5282 16.8626 13.5361 17.3149 12.4442C17.7672 11.3522 18 10.1819 18 9C18 6.61305 17.0518 4.32387 15.364 2.63604C13.6761 0.948211 11.3869 -4.97739e-07 9 -3.93402e-07C7.8181 -3.4174e-07 6.64778 0.232792 5.55585 0.685083C4.46392 1.13738 3.47177 1.80031 2.63604 2.63604C1.80031 3.47177 1.13738 4.46392 0.685084 5.55585C0.232791 6.64778 -4.45065e-07 7.8181 -3.93402e-07 9C-3.4174e-07 10.1819 0.232792 11.3522 0.685084 12.4442C1.13738 13.5361 1.80031 14.5282 2.63604 15.364C4.32387 17.0518 6.61305 18 9 18ZM9 16.2C7.09044 16.2 5.25909 15.4414 3.90883 14.0912C2.55857 12.7409 1.8 10.9096 1.8 9C1.8 7.09044 2.55857 5.25909 3.90883 3.90883C5.25909 2.55857 7.09044 1.8 9 1.8C10.9096 1.8 12.7409 2.55857 14.0912 3.90883C15.4414 5.25909 16.2 7.09044 16.2 9C16.2 10.9096 15.4414 12.7409 14.0912 14.0912C12.7409 15.4414 10.9096 16.2 9 16.2ZM13.5 10.8L9 6.3L4.5 10.8L13.5 10.8Z" fill="#2C2C2C" fill-opacity="0.75"/>
</svg>
