<svg width="139" height="138" viewBox="0 0 139 138" fill="none" xmlns="http://www.w3.org/2000/svg">
<g clip-path="url(#clip0_3074_2291)">
<path d="M0.556396 11.5C0.556396 8.45001 1.768 5.52494 3.92467 3.36827C6.08134 1.2116 9.00641 0 12.0564 0L35.0564 0V11.5H12.0564V34.5H0.556396V11.5ZM138.556 126.5C138.556 129.55 137.345 132.475 135.188 134.632C133.031 136.788 130.106 138 127.056 138H104.056V126.5H127.056V103.5H138.556V126.5ZM12.0564 138C9.00641 138 6.08134 136.788 3.92467 134.632C1.768 132.475 0.556396 129.55 0.556396 126.5V103.5H12.0564V126.5H35.0564V138H12.0564ZM127.056 0C130.106 0 133.031 1.2116 135.188 3.36827C137.345 5.52494 138.556 8.45001 138.556 11.5V34.5H127.056V11.5H104.056V0H127.056Z" fill="#2C2C2C"/>
</g>
<path d="M93.1165 104.662V98.7182H99.0601V104.662H93.1165ZM75.2856 92.7745V86.8309H81.2292V92.7745H75.2856ZM75.2856 110.605H87.1729V104.662H81.2292V98.7182H75.2856V110.605ZM99.0601 98.7182V86.8309H105.004V98.7182H99.0601ZM105.004 98.7182H110.947V110.605H99.0601V104.662H105.004V98.7182ZM99.0601 80.8872V74.9436H110.947V86.8309H105.004V80.8872H99.0601ZM93.1165 80.8872H87.1729V92.7745H81.2292V98.7182H93.1165V80.8872ZM75.2856 80.8872V74.9436H87.1729V80.8872H75.2856ZM39.6238 86.8309H51.5111V98.7182H39.6238V86.8309Z" fill="#2C2C2C"/>
<path d="M63.3989 110.606H27.7371V74.9437H63.3989V110.606ZM33.6807 104.662H57.4552V80.8873H33.6807V104.662ZM87.1734 39.2819H99.0607V51.1691H87.1734V39.2819Z" fill="#2C2C2C"/>
<path d="M110.947 63.0564H75.2856V27.3945H110.947V63.0564ZM81.2292 57.1127H105.004V33.3382H81.2292V57.1127ZM39.6238 39.2818H51.5111V51.1691H39.6238V39.2818Z" fill="#2C2C2C"/>
<path d="M63.3989 63.0564H27.7371V27.3945H63.3989V63.0564ZM33.6807 57.1127H57.4552V33.3382H33.6807V57.1127Z" fill="#2C2C2C"/>
<defs>
<clipPath id="clip0_3074_2291">
<rect width="138" height="138" fill="white" transform="translate(0.556396)"/>
</clipPath>
</defs>
</svg>
